<svg width="24" height="24" viewBox="0 0 24 24" fill="#fff" xmlns="http://www.w3.org/2000/svg">
<path d="M13.75 7.75H1.25V9.25H13.75V7.75Z"/>
<path d="M8.75 15.75H5.25V17.25H8.75V15.75Z"/>
<path d="M15.25 15.75H9.75V17.25H15.25V15.75Z"/>
<path d="M22.75 21.25H1.25V2.75H14.03V4.25H2.75V19.75H21.25V10.58H22.75V21.25Z"/>
<path d="M22.13 6.5H16.25V2.5H22.13V6.5ZM17.75 5H20.63V4H17.75V5Z"/>
<path d="M22.75 9H16.25V5H22.75V9ZM17.75 7.5H21.25V6.5H17.75V7.5Z"/>
<path d="M19.52 7.5H18.02V10.25H19.52V7.5Z"/>
<path d="M19.52 1.25H18.02V4H19.52V1.25Z"/>
<path d="M18.94 2.5H15.25V4H18.94V2.5Z"/>
<path d="M18.94 7.5H15.25V9H18.94V7.5Z"/>
</svg>