<svg width="24" height="24" viewBox="0 0 24 24" fill="#fff" xmlns="http://www.w3.org/2000/svg">
<path d="M12.4798 22.6897H11.7298C8.11978 22.6897 4.77978 20.8997 2.77978 17.8897C0.729783 14.8197 0.419783 10.9997 1.91978 7.39974C2.89978 5.02974 4.82978 3.10974 7.18978 2.12974C10.7798 0.629744 14.6098 0.939744 17.6798 2.98974C20.6798 4.98974 22.4798 8.33974 22.4798 11.9397V12.6897H20.9798V11.9397C20.9798 8.83974 19.4398 5.95974 16.8498 4.22974C14.1998 2.46974 10.8898 2.19974 7.76978 3.50974C5.75978 4.33974 4.13978 5.96974 3.29978 7.97974C1.99978 11.1097 2.25978 14.4197 4.01978 17.0597C5.73978 19.6497 8.61978 21.1897 11.7298 21.1897H12.4798V22.6897Z"/>
<path d="M8.25984 21.89L8.01984 21.18C6.02984 15.22 6.02984 8.66 8.01984 2.71L8.25984 2L9.67984 2.47L9.43984 3.18C7.54984 8.83 7.54984 15.05 9.43984 20.7L9.67984 21.41L8.25984 21.89Z"/>
<path d="M16.9403 12.69H15.4403V11.94C15.4403 8.97 14.9603 6.02 14.0203 3.18L13.7803 2.47L15.2003 2L15.4403 2.71C16.4303 5.7 16.9403 8.81 16.9403 11.95V12.7V12.69Z"/>
<path d="M12.4803 17.1502H11.7303C8.59027 17.1502 5.48027 16.6502 2.49027 15.6502L1.78027 15.4102L2.25027 13.9902L2.96027 14.2302C5.80027 15.1702 8.75027 15.6502 11.7203 15.6502H12.4703V17.1502H12.4803Z"/>
<path d="M21.1903 9.89008L20.2703 9.58008C14.7603 7.74008 8.69027 7.74008 3.17027 9.58008L2.25027 9.89008L1.78027 8.47008L2.70027 8.16008C8.52027 6.22008 14.9303 6.22008 20.7403 8.16008L21.6603 8.47008L21.1903 9.89008Z"/>
<path d="M13.8604 22.9802L14.5404 19.0202L20.0704 13.4902L23.3204 16.8002L17.8204 22.3002L13.8604 22.9802ZM15.9404 19.7402L15.7004 21.1402L17.1004 20.9002L21.2204 16.7802L20.0704 15.6102L15.9404 19.7402Z"/>
<path d="M20.69 18.8697L19.97 18.6597C19.61 18.5597 19.02 18.2797 18.95 18.2497L18.7 18.1297L18.58 17.8797C18.55 17.8097 18.27 17.2197 18.17 16.8597L17.96 16.1397L19.4 15.7197L19.61 16.4397C19.65 16.5597 19.74 16.7897 19.83 16.9897C20.03 17.0797 20.26 17.1697 20.38 17.2097L21.1 17.4197L20.68 18.8597L20.69 18.8697Z"/>
</svg>