<svg width="24" height="24" viewBox="0 0 24 24" fill="#fff" xmlns="http://www.w3.org/2000/svg">
<path d="M18.7093 15.3698C18.1893 15.3698 17.5993 15.2398 16.9793 15.0098C15.3093 14.4098 13.3993 12.9998 11.7393 11.1398C10.0793 9.27976 8.89933 7.21976 8.47933 5.48976C8.10933 4.00976 8.32933 2.79976 9.11933 2.09976C10.8493 0.559764 14.5893 2.11976 17.8093 5.72976C19.2493 7.34976 20.3393 9.11976 20.8793 10.7198C21.4893 12.5298 21.3293 13.9698 20.4293 14.7698C19.9893 15.1698 19.3993 15.3698 18.7093 15.3698ZM10.8493 2.99976C10.5293 2.99976 10.2793 3.07976 10.1193 3.21976C9.77933 3.51976 9.71933 4.23976 9.93933 5.13976C10.2993 6.64976 11.3593 8.46976 12.8593 10.1498C14.3593 11.8298 16.0493 13.0898 17.4993 13.6098C18.3793 13.9398 19.0893 13.9498 19.4293 13.6498C19.8393 13.2798 19.8493 12.3698 19.4593 11.1998C18.9893 9.78976 17.9993 8.19976 16.6893 6.72976C14.3893 4.15976 12.0893 2.99976 10.8493 2.99976Z"/>
<path d="M0.330078 21.3196L8.54814 2.90527L10.0501 3.21965L3.06008 18.8796L19.2901 13.7596L19.7401 15.1896L0.330078 21.3196Z"/>
<path d="M8.55938 23.2195L6.85938 17.8195L8.28938 17.3595L9.53938 21.3395L14.0694 19.9095L12.8194 15.9295L14.2494 15.4795L15.9494 20.8895L8.55938 23.2195Z"/>
</svg>