
        <svg xmlns="http://www.w3.org/2000/svg" xmlns:xlink="http://www.w3.org/1999/xlink" version="1.1" width="3162.175444344336" height="599.8367167838269" viewBox="0 0 3162.175444344336 599.8367167838269">
			
			<g transform="scale(8.108772217216806) translate(10, 10)">
				<defs id="SvgjsDefs1633"/><g id="SvgjsG1634" featureKey="tOsHRK-0" transform="matrix(0.07202268031178947,0,0,0.07202268031178947,-9.506992702177325,-9.024441513373555)" fill="#000"><g xmlns="http://www.w3.org/2000/svg"><path d="M661.8,226L637,215.3c-12.6-5.4-27.4,0.4-32.8,13l-36.9,85.7L269.8,185.9c-4.2-34.1-33.4-60.6-68.6-60.6   c-38.1,0-69.2,31-69.2,69.1c0,38.1,31,69.2,69.2,69.2c12.3,0,23.9-3.2,33.9-8.9l322.4,138.9l27.1,11.7c10.8,4.7,23.3,1,30-8.2   c1.1-1.5,2-3.1,2.7-4.8l11.1-25.7l0.2-0.4l46.3-107.5C680.3,246.2,674.4,231.5,661.8,226z M201.2,231.9c-2.4,0-4.7-0.2-7-0.7   c-17.3-3.3-30.4-18.5-30.4-36.8c0-20.6,16.8-37.4,37.4-37.4c11.2,0,21.2,4.9,28,12.7c5.8,6.6,9.4,15.3,9.4,24.8   C238.6,215.1,221.8,231.9,201.2,231.9z"/><path d="M628.3,366.7c-0.1,0.3-0.2,0.5-0.3,0.8l-10.7,24.8c0,0,0,0.1-0.1,0.1L628.3,366.7z"/><path d="M545.3,279.8L387.9,212c-6.1-2.6-8.9-9.7-6.3-15.8l21-48.7c2.6-6.1,9.7-8.9,15.8-6.3l157.4,67.8   c6.1,2.6,8.9,9.7,6.3,15.8l-21,48.7C558.5,279.6,551.4,282.4,545.3,279.8z"/><path d="M614.5,397.2c-6.7,9.2-19.2,12.9-30.1,8.3l-24.8-10.7c-0.7-0.3-1.5-0.7-2.2-1.1l27.1,11.7   C595.4,410,607.8,406.4,614.5,397.2z"/><path d="M630.3,632.5l-24.9-10.6c0,0-0.1,0-0.1-0.1L630.3,632.5z"/><path d="M717.5,549.4l67.1-157.7c2.6-6.1,9.7-8.9,15.7-6.3l48.7,20.7c6.1,2.6,8.9,9.7,6.3,15.7l-67.1,157.7   c-2.6,6.1-9.7,8.9-15.7,6.3l-48.7-20.7C717.8,562.5,714.9,555.4,717.5,549.4z"/><path d="M597,616.1c0.1,0.1,0.1,0.1,0.2,0.2C597.2,616.2,597.1,616.2,597,616.1C597.1,616.1,597.1,616.1,597,616.1z   "/><path d="M597.2,616.2c0.3,0.3,0.5,0.6,0.8,0.8C597.7,616.8,597.5,616.5,597.2,616.2z"/><path d="M596.1,615c0.3,0.4,0.6,0.7,0.9,1c-6.7-7-9-17.6-5-27l10.6-24.9c0.3-0.7,0.7-1.4,1.1-2.1l-11.5,27.1   c-1.5,3.6-2.2,7.4-2,11.1c0,0.3,0,0.5,0.1,0.7c0,0.3,0,0.5,0.1,0.8c0,0,0,0.1,0,0.1c0.1,0.4,0.1,0.9,0.2,1.3   c0.1,0.4,0.1,0.8,0.2,1.2c0,0.2,0.1,0.4,0.2,0.6c0.1,0.4,0.2,0.7,0.3,1c0.1,0.4,0.2,0.8,0.4,1.2c0,0.2,0.1,0.3,0.2,0.5   c0.1,0.4,0.3,0.8,0.5,1.1c0.2,0.4,0.3,0.7,0.5,1.1c0.1,0.2,0.2,0.5,0.4,0.7c0,0.1,0.1,0.2,0.1,0.3c0.2,0.3,0.3,0.6,0.5,0.8   c0.1,0.3,0.3,0.5,0.5,0.7c0.2,0.3,0.4,0.7,0.7,1c0.2,0.2,0.3,0.5,0.5,0.7C595.6,614.4,595.8,614.7,596.1,615z"/><path d="M599.3,618.2c-0.4-0.4-0.8-0.7-1.2-1.1C598.4,617.4,598.8,617.8,599.3,618.2z"/><path d="M375.8,610.9L365,636.6c0.1-0.2,0.2-0.5,0.3-0.7l10.5-24.9C375.8,610.9,375.8,610.9,375.8,610.9z"/><path d="M448.8,722.8l158,66.4c6.1,2.6,9,9.6,6.4,15.7l-20.5,48.8c-2.6,6.1-9.6,9-15.7,6.4l-158-66.4   c-6.1-2.6-9-9.6-6.4-15.7l20.5-48.8C435.6,723.1,442.7,720.2,448.8,722.8z"/><path d="M435.5,609l-27.1-11.4c-9.7-4-20.6-1.5-27.5,5.6c6.9-7.2,17.9-9.8,27.6-5.7l24.9,10.5   C434.2,608.3,434.9,608.6,435.5,609z"/><path d="M385.7,381.4l-26-10.8c0.3,0.1,0.6,0.2,0.9,0.4l25,10.4C385.7,381.3,385.7,381.3,385.7,381.4z"/><path d="M274.1,454.8l-65.7,158.3c-2.5,6.1-9.6,9-15.7,6.5l-48.9-20.3c-6.1-2.5-9-9.6-6.5-15.7L203,425.4   c2.5-6.1,9.6-9,15.7-6.5l48.9,20.3C273.8,441.7,276.7,448.7,274.1,454.8z"/><g><path d="M798.8,133c-38.1,0-69.2,31-69.2,69.1c0,13.9,4.1,26.8,11.2,37.6L603.7,562l-11.5,27.1    c-1.5,3.6-2.2,7.4-2,11.1c0,0.2,0,0.5,0.1,0.7c0,0.3,0,0.5,0.1,0.8c0,0,0,0.1,0,0.1c0.1,0.4,0.1,0.9,0.2,1.3    c0.1,0.4,0.1,0.8,0.2,1.2c0,0.2,0.1,0.4,0.2,0.6c0.1,0.4,0.2,0.7,0.3,1c0.1,0.4,0.2,0.8,0.4,1.2c0,0.2,0.1,0.3,0.2,0.5    c0.1,0.4,0.3,0.8,0.5,1.1c0.2,0.4,0.3,0.7,0.5,1.1c0.1,0.2,0.2,0.5,0.4,0.7c0,0.1,0.1,0.2,0.1,0.3c0.2,0.3,0.3,0.6,0.5,0.8    c0.1,0.3,0.3,0.5,0.5,0.7c0.2,0.3,0.4,0.7,0.7,1c0.2,0.2,0.3,0.5,0.5,0.7c0.3,0.3,0.5,0.6,0.8,1c0.2,0.2,0.3,0.4,0.5,0.6    c0.1,0.1,0.1,0.1,0.2,0.2c0.1,0.1,0.1,0.1,0.2,0.2c0.1,0.1,0.1,0.1,0.1,0.1c0.7,0.7,1.4,1.4,2.2,2c0,0,0,0,0,0    c0.4,0.3,0.8,0.6,1.2,0.9c1.5,1.1,3.1,2,4.8,2.7l25,10.7l1.2,0.5l107.7,45.8c12.6,5.4,27.4-0.6,32.7-13.2l10.6-24.9    c5.4-12.6-0.6-27.3-13.2-32.7l-85.9-36.5l128.2-301.3c32.1-6,56.4-34.2,56.4-68C868,164,837,133,798.8,133z M826.1,227.7    c-6.8,7.3-16.5,11.8-27.3,11.8c-20.6,0-37.4-16.8-37.4-37.4c0-0.7,0-1.5,0.1-2.2v0c1.1-19.6,17.4-35.2,37.4-35.2    c20.6,0,37.4,16.8,37.4,37.4C836.3,212,832.4,221,826.1,227.7z"/></g><g><path d="M392.1,385.2c-1.9-1.6-4-2.9-6.3-3.8l-26-10.8l-0.3-0.1l-108.1-44.8c-12.7-5.3-27.4,0.8-32.6,13.5    l-10.4,25c-5.3,12.7,0.8,27.4,13.5,32.6l86.2,35.8L181.7,737.2c-28.7,8.4-49.7,35-49.7,66.4c0,38.1,31,69.2,69.2,69.2    c38.1,0,69.2-31,69.2-69.2c0-16.2-5.6-31.1-15-42.9l132.5-319.5c0.4-0.7,0.7-1.4,1-2.1l10.4-25C403.5,403.7,400.3,392,392.1,385.2    z M201.2,841c-20.6,0-37.4-16.8-37.4-37.4c0-7.6,2.3-14.6,6.1-20.5c6.7-10.2,18.2-16.9,31.3-16.9c19.3,0,35.2,14.7,37.2,33.5v0    c0.1,1.3,0.2,2.6,0.2,3.9C238.6,824.2,221.8,841,201.2,841z"/></g><g><path d="M795,736.3c-12.5,0-24.3,3.4-34.5,9.2L435.5,609l-27.1-11.4c-9.7-4-20.6-1.5-27.5,5.6    c-2.1,2.2-3.9,4.7-5.1,7.7L365,636.6L319.5,745c-5.3,12.7,0.7,27.4,13.3,32.7l24.9,10.5c12.7,5.3,27.4-0.7,32.7-13.3l36.2-86.1    l299.9,126c4.5,33.8,33.5,59.9,68.5,59.9c38.1,0,69.2-31,69.2-69.2C864.2,767.4,833.2,736.3,795,736.3z M795,842.9    c-11.3,0-21.4-5-28.2-12.9h0c-5.7-6.6-9.2-15.2-9.2-24.5c0-20.6,16.8-37.4,37.4-37.4c1.9,0,3.7,0.1,5.6,0.4    c18,2.7,31.9,18.3,31.9,37C832.5,826.1,815.7,842.9,795,842.9z"/></g></g></g><g id="SvgjsG1635" featureKey="dVtZHI-0" transform="matrix(2.3546597724582203,0,0,2.3546597724582203,70.7395270900116,-3.3855075737012665)" fill="#000"><path d="M7.78 13.98 l0 -1.66 l6.3 0 l0 7.68 l-1.26 0 l-0.46 -1.86 c-0.98 1.36 -2.78 2.24 -4.74 2.24 c-2.46 0 -3.66 -0.9 -4.4 -1.62 c-2.2 -2.08 -2.26 -4.54 -2.26 -6.06 c0 -3.5 2.12 -7.44 6.8 -7.44 c2.68 0 5.66 1.52 6.08 4.74 l-1.88 0 c-0.62 -2.5 -2.72 -3.02 -4.3 -3.02 c-2.58 0 -4.7 2.06 -4.7 5.82 c0 2.92 0.96 5.92 4.78 5.92 c0.72 0 1.88 -0.08 2.94 -0.92 c1.26 -1 1.58 -2.28 1.58 -3.82 l-4.48 0 z M18.66 5.64 l0 14.36 l-1.76 0 l0 -14.36 l1.76 0 z M23.1 9.54 l0 10.46 l-1.76 0 l0 -10.46 l1.76 0 z M23.1 7.64 l-1.76 0 l0 -2 l1.76 0 l0 2 z M29.58 11 l-1.68 0 l0 6.8 c0 0.82 0.7 0.82 1.06 0.82 l0.62 0 l0 1.38 c-0.64 0.06 -1.14 0.14 -1.32 0.14 c-1.74 0 -2.12 -0.98 -2.12 -2.24 l0 -6.9 l-1.42 0 l0 -1.46 l1.42 0 l0 -2.92 l1.76 0 l0 2.92 l1.68 0 l0 1.46 z M39.54 13.06 l-1.7 0 c-0.22 -1.4 -1 -2.24 -2.48 -2.24 c-2.18 0 -2.88 2.08 -2.88 3.94 c0 1.8 0.44 4.02 2.86 4.02 c1.18 0 2.2 -0.88 2.5 -2.48 l1.7 0 c-0.18 1.66 -1.2 4 -4.26 4 c-2.94 0 -4.68 -2.22 -4.68 -5.24 c0 -3.24 1.56 -5.82 5.02 -5.82 c2.74 0 3.78 2 3.92 3.82 z M49.82 12.88 l0 7.12 l-1.76 0 l0 -6.84 c0 -1.42 -0.4 -2.34 -2.08 -2.34 c-1.44 0 -2.92 0.84 -2.92 3.48 l0 5.7 l-1.76 0 l0 -14.36 l1.76 0 l0 5.3 l0.04 0 c0.5 -0.66 1.38 -1.7 3.06 -1.7 c1.62 0 3.66 0.66 3.66 3.64 z M71.9 20 l-1.88 0 l0 -8.48 c0 -0.42 0.04 -2.24 0.04 -3.58 l-0.04 0 l-4.04 12.06 l-1.92 0 l-4.04 -12.04 l-0.04 0 c0 1.32 0.04 3.14 0.04 3.56 l0 8.48 l-1.88 0 l0 -14.36 l2.78 0 l4.1 12.14 l0.04 0 l4.08 -12.14 l2.76 0 l0 14.36 z M76.2 12.72 l-1.62 0 c0.08 -2.5 1.74 -3.48 4.32 -3.48 c0.84 0 3.88 0.24 3.88 2.92 l0 6.02 c0 0.44 0.22 0.62 0.58 0.62 c0.16 0 0.38 -0.04 0.58 -0.08 l0 1.28 c-0.3 0.08 -0.56 0.2 -0.96 0.2 c-1.56 0 -1.8 -0.8 -1.86 -1.6 c-0.68 0.74 -1.74 1.7 -3.78 1.7 c-1.92 0 -3.28 -1.22 -3.28 -3.02 c0 -0.88 0.26 -2.92 3.18 -3.28 l2.9 -0.36 c0.42 -0.04 0.92 -0.2 0.92 -1.24 c0 -1.1 -0.8 -1.7 -2.46 -1.7 c-2 0 -2.28 1.22 -2.4 2.02 z M81.02 16.38 l0 -1.72 c-0.28 0.22 -0.72 0.38 -2.9 0.66 c-0.86 0.12 -2.24 0.38 -2.24 1.7 c0 1.14 0.58 1.82 1.9 1.82 c1.64 0 3.24 -1.06 3.24 -2.46 z M87.76 13.92 l0 6.08 l-1.76 0 l0 -10.46 l1.66 0 l0 1.74 l0.04 0 c0.7 -1.22 1.62 -2.04 2.94 -2.04 c0.22 0 0.32 0.02 0.46 0.06 l0 1.82 l-0.66 0 c-1.64 0 -2.68 1.28 -2.68 2.8 z M96.9 13.44 l4.24 6.56 l-2.26 0 l-3.26 -5.28 l-1.46 1.32 l0 3.96 l-1.7 0 l0 -14.36 l1.7 0 l0 8.32 l4.5 -4.42 l2.24 0 z M109.54 16.72 l1.76 0 c-0.06 0.5 -0.54 1.98 -1.86 2.86 c-0.48 0.32 -1.16 0.72 -2.84 0.72 c-2.94 0 -4.68 -2.22 -4.68 -5.24 c0 -3.24 1.56 -5.82 5.02 -5.82 c3.02 0 4.5 2.4 4.5 6.1 l-7.64 0 c0 2.18 1.02 3.44 3.04 3.44 c1.66 0 2.64 -1.28 2.7 -2.06 z M103.8 13.94 l5.82 0 c-0.1 -1.62 -0.78 -3.12 -2.92 -3.12 c-1.62 0 -2.9 1.5 -2.9 3.12 z M117.38 11 l-1.68 0 l0 6.8 c0 0.82 0.7 0.82 1.06 0.82 l0.62 0 l0 1.38 c-0.64 0.06 -1.14 0.14 -1.32 0.14 c-1.74 0 -2.12 -0.98 -2.12 -2.24 l0 -6.9 l-1.42 0 l0 -1.46 l1.42 0 l0 -2.92 l1.76 0 l0 2.92 l1.68 0 l0 1.46 z M126.74 12.52 l-1.7 0 c-0.02 -0.66 -0.26 -1.76 -2.48 -1.76 c-0.54 0 -2.08 0.18 -2.08 1.48 c0 0.86 0.54 1.06 1.9 1.4 l1.76 0.44 c2.18 0.54 2.94 1.34 2.94 2.76 c0 2.16 -1.78 3.46 -4.14 3.46 c-4.14 0 -4.44 -2.4 -4.5 -3.66 l1.7 0 c0.06 0.82 0.3 2.14 2.78 2.14 c1.26 0 2.4 -0.5 2.4 -1.66 c0 -0.84 -0.58 -1.12 -2.08 -1.5 l-2.04 -0.5 c-1.46 -0.36 -2.42 -1.1 -2.42 -2.54 c0 -2.3 1.9 -3.34 3.96 -3.34 c3.74 0 4 2.76 4 3.28 z"/></g>
			</g>
		</svg>
	